<?xml version="1.0" standalone="no"?>
<!DOCTYPE svg PUBLIC "-//W3C//DTD SVG 20010904//EN"
 "http://www.w3.org/TR/2001/REC-SVG-20010904/DTD/svg10.dtd">
<svg version="1.0" xmlns="http://www.w3.org/2000/svg"
 width="259.000000pt" height="259.000000pt" viewBox="0 0 259.000000 259.000000"
 preserveAspectRatio="xMidYMid meet">
<metadata>
Created by potrace 1.11, written by Peter Selinger 2001-2013
</metadata>
<g transform="translate(0.000000,259.000000) scale(0.100000,-0.100000)"
fill="#000000" stroke="none">
<path d="M1269 2577 c-18 -19 -31 -35 -101 -125 -98 -125 -102 -186 -21 -307
53 -78 51 -71 44 -195 -2 -24 -2 -24 -19 7 -40 74 -93 114 -174 132 -64 15
-343 30 -353 19 -2 -2 24 -62 59 -134 101 -207 153 -238 409 -245 l77 -2 -1
-103 c-1 -57 -6 -101 -11 -98 -4 3 -8 11 -8 17 0 19 -79 106 -111 123 -45 23
-121 34 -281 40 l-148 6 25 -56 c126 -285 175 -321 448 -328 37 -1 67 -5 67
-8 0 -3 -70 -73 -155 -155 l-156 -150 -2 -76 c-2 -73 -3 -77 -36 -105 -83 -70
-81 -195 6 -261 31 -24 46 -28 98 -28 52 0 67 4 98 28 46 35 56 54 64 117 7
62 -8 102 -55 140 -33 27 -36 33 -34 77 2 46 6 51 88 130 47 46 88 83 90 83 6
0 -4 -716 -11 -767 -3 -21 -18 -44 -47 -71 -43 -40 -43 -41 -43 -111 0 -55 4
-75 21 -97 36 -49 71 -68 128 -70 70 -3 121 26 153 85 40 76 28 144 -36 205
l-30 29 4 176 c2 97 4 223 5 281 l0 105 85 -86 c79 -80 85 -89 85 -127 0 -34
-5 -44 -30 -62 -39 -27 -70 -89 -70 -136 0 -113 139 -198 244 -149 68 33 107
140 78 215 -10 27 -59 80 -73 80 -5 0 -9 34 -9 77 l0 76 -127 131 c-71 72
-134 134 -141 139 -19 13 -38 59 -36 92 1 17 2 67 3 112 l1 82 85 -44 c137
-72 184 -64 405 64 69 40 128 76 133 80 4 4 -52 43 -125 87 l-133 79 -80 0
c-71 0 -89 -4 -150 -34 -39 -19 -82 -42 -97 -53 -14 -10 -29 -18 -32 -18 -6 0
0 259 6 266 3 2 36 -6 74 -17 98 -29 187 -29 244 0 37 19 194 168 274 259 18
21 18 22 -10 32 -16 7 -78 24 -139 40 -183 47 -252 29 -380 -99 l-66 -66 2 75
c2 83 7 96 54 155 65 80 82 149 56 218 -12 32 -113 181 -146 215 -19 21 -24
22 -36 9z"/>
</g>
</svg>
